<svg width="28" height="25" viewBox="0 0 28 25" fill="none" xmlns="http://www.w3.org/2000/svg">
<g clip-path="url(#clip0)">
<path d="M0 21.7178C0.288855 20.7338 0.901579 19.9172 1.40124 19.0446C3.22701 15.8568 5.07102 12.6792 6.91065 9.49875C8.47236 6.79861 10.0282 4.09555 11.6045 1.40341C12.7016 -0.469226 15.2955 -0.469226 16.3947 1.40414C17.7252 3.67051 19.0294 5.95217 20.3461 8.22655C21.3075 9.8874 22.2718 11.5453 23.2332 13.2062C24.7001 15.7404 26.1684 18.2731 27.6258 20.8132C27.787 21.0941 27.8767 21.4151 27.9993 21.7171C27.9993 22.0628 27.9993 22.4085 27.9993 22.7535C27.8592 23.228 27.6718 23.6771 27.3384 24.0548C26.7425 24.7302 25.9773 24.9966 25.0969 24.9966C20.4139 24.9966 15.7309 24.9988 11.048 24.9988C8.32429 24.9988 5.59985 24.9973 2.87615 24.9958C2.00521 24.9951 1.25171 24.7193 0.662325 24.0541C0.328245 23.6778 0.142239 23.228 0 22.7542C0 22.4085 0 22.0635 0 21.7178ZM13.9861 23.2826C13.9861 23.2833 13.9861 23.2841 13.9861 23.2848C14.1408 23.2848 14.2962 23.2848 14.4508 23.2848C18.0228 23.2848 21.5949 23.287 25.1669 23.2833C26.0947 23.2826 26.598 22.4434 26.1443 21.6589C24.6432 19.0606 23.1391 16.4638 21.635 13.8663C20.5138 11.9303 19.392 9.99511 18.2716 8.05843C17.1694 6.15377 16.0745 4.24475 14.9643 2.34446C14.4639 1.48783 13.5288 1.49074 13.032 2.343C11.9379 4.22146 10.8518 6.10355 9.76346 7.98492C7.67728 11.5897 5.59256 15.1953 3.50711 18.8008C2.95128 19.7615 2.39108 20.7185 1.84109 21.6822C1.45522 22.3576 1.82796 23.1429 2.5873 23.2688C2.70328 23.2877 2.82363 23.2826 2.9418 23.2826C6.62398 23.2826 10.3047 23.2826 13.9861 23.2826Z" fill="#DF5F5F"/>
<path d="M14 15.4011C12.7505 15.4011 11.7395 14.3967 11.6855 13.1412C11.6213 11.6536 11.5112 10.1682 11.4492 8.68054C11.3945 7.36468 12.3238 6.23294 13.6586 6.05609C15.0154 5.87632 16.2248 6.71766 16.4837 8.05827C16.5815 8.56555 16.5231 9.10631 16.5114 9.63105C16.5012 10.0663 16.4487 10.5 16.4246 10.9353C16.3816 11.706 16.351 12.4775 16.3057 13.2482C16.2357 14.4375 15.1999 15.4011 14 15.4011ZM14.0007 7.75478C13.5149 7.75478 13.1262 8.1558 13.1517 8.62814C13.2042 9.60703 13.2531 10.5867 13.3085 11.5655C13.3377 12.0823 13.3734 12.5983 13.4143 13.1143C13.442 13.4702 13.6856 13.6929 14.0197 13.6849C14.3407 13.6769 14.569 13.4498 14.5909 13.1092C14.6266 12.5568 14.6609 12.0037 14.693 11.4513C14.7469 10.527 14.7936 9.60194 14.852 8.67763C14.8841 8.16599 14.5121 7.75551 14.0007 7.75478Z" fill="#DF5F5F"/>
<path d="M14.0044 16.7373C15.4238 16.7359 16.5304 17.8574 16.5319 19.2992C16.5333 20.6514 15.3939 21.789 14.0401 21.7882C12.598 21.7882 11.4681 20.6783 11.4689 19.265C11.4703 17.853 12.5885 16.7388 14.0044 16.7373ZM14.814 19.2751C14.8191 18.8057 14.4887 18.4593 14.027 18.4498C13.5448 18.4396 13.1903 18.7759 13.186 19.2482C13.1816 19.7169 13.5127 20.0648 13.973 20.0735C14.4559 20.083 14.8089 19.7475 14.814 19.2751Z" fill="#DF5F5F"/>
</g>
<defs>
<clipPath id="clip0">
<rect width="28" height="25" fill="white"/>
</clipPath>
</defs>
</svg>
