<svg width="18" height="18" viewBox="0 0 18 18" fill="none" xmlns="http://www.w3.org/2000/svg">
<g clip-path="url(#clip0)">
<path d="M4.49833 0C4.14328 0 3.85547 0.287816 3.85547 0.642869V1.92857H5.14116V0.642869C5.14116 0.287816 4.85335 0 4.49833 0Z" fill="#6576FF"/>
<path d="M13.4983 0C13.1433 0 12.8555 0.287816 12.8555 0.642869V1.92857H14.1412V0.642869C14.1412 0.287816 13.8534 0 13.4983 0Z" fill="#6576FF"/>
<path d="M16.0714 1.92871H14.1429V4.50015C14.1429 4.8552 13.855 5.14302 13.5 5.14302C13.1449 5.14302 12.8571 4.8552 12.8571 4.50015V1.92871H5.14284V4.50015C5.14284 4.8552 4.85502 5.14302 4.49997 5.14302C4.14492 5.14302 3.8571 4.8552 3.8571 4.50015V1.92871H1.92857C0.863449 1.92871 0 2.79216 0 3.85728V16.0716C0 17.1367 0.863449 18.0001 1.92857 18.0001H16.0714C17.1365 18.0001 18 17.1367 18 16.0716V3.85728C18 2.79216 17.1365 1.92871 16.0714 1.92871ZM16.7143 16.0716C16.7143 16.4266 16.4264 16.7144 16.0714 16.7144H1.92857C1.57352 16.7144 1.2857 16.4266 1.2857 16.0716V7.71442H16.7143V16.0716Z" fill="#6576FF"/>
<path d="M5.14342 9H3.85772C3.50266 9 3.21484 9.28782 3.21484 9.64288C3.21484 9.99794 3.50266 10.2858 3.85772 10.2858H5.14342C5.49848 10.2858 5.78629 9.99794 5.78629 9.64288C5.78629 9.28782 5.49848 9 5.14342 9Z" fill="#6576FF"/>
<path d="M9.6434 9H8.35771C8.00266 9 7.71484 9.28782 7.71484 9.64288C7.71484 9.99794 8.00266 10.2858 8.35771 10.2858H9.6434C9.99845 10.2858 10.2863 9.99794 10.2863 9.64288C10.2863 9.28782 9.99845 9 9.6434 9Z" fill="#6576FF"/>
<path d="M14.1434 9H12.8577C12.5027 9 12.2148 9.28782 12.2148 9.64288C12.2148 9.99794 12.5027 10.2858 12.8577 10.2858H14.1434C14.4985 10.2858 14.7863 9.99794 14.7863 9.64288C14.7863 9.28782 14.4984 9 14.1434 9Z" fill="#6576FF"/>
<path d="M5.14342 11.5713H3.85772C3.50266 11.5713 3.21484 11.8591 3.21484 12.2142C3.21484 12.5692 3.50266 12.857 3.85772 12.857H5.14342C5.49848 12.857 5.78629 12.5692 5.78629 12.2142C5.78629 11.8591 5.49848 11.5713 5.14342 11.5713Z" fill="#6576FF"/>
<path d="M9.6434 11.5713H8.35771C8.00266 11.5713 7.71484 11.8591 7.71484 12.2142C7.71484 12.5692 8.00266 12.857 8.35771 12.857H9.6434C9.99845 12.857 10.2863 12.5692 10.2863 12.2142C10.2863 11.8591 9.99845 11.5713 9.6434 11.5713Z" fill="#6576FF"/>
<path d="M14.1434 11.5713H12.8577C12.5027 11.5713 12.2148 11.8591 12.2148 12.2142C12.2148 12.5692 12.5027 12.857 12.8577 12.857H14.1434C14.4985 12.857 14.7863 12.5692 14.7863 12.2142C14.7862 11.8591 14.4984 11.5713 14.1434 11.5713Z" fill="#6576FF"/>
<path d="M5.14342 14.1426H3.85772C3.50266 14.1426 3.21484 14.4304 3.21484 14.7854C3.21484 15.1405 3.50266 15.4283 3.85772 15.4283H5.14342C5.49848 15.4283 5.78629 15.1405 5.78629 14.7854C5.78629 14.4304 5.49848 14.1426 5.14342 14.1426Z" fill="#6576FF"/>
<path d="M9.6434 14.1426H8.35771C8.00266 14.1426 7.71484 14.4304 7.71484 14.7854C7.71484 15.1405 8.00266 15.4283 8.35771 15.4283H9.6434C9.99845 15.4283 10.2863 15.1405 10.2863 14.7854C10.2863 14.4304 9.99845 14.1426 9.6434 14.1426Z" fill="#6576FF"/>
<path d="M14.1434 14.1426H12.8577C12.5027 14.1426 12.2148 14.4304 12.2148 14.7854C12.2148 15.1405 12.5027 15.4283 12.8577 15.4283H14.1434C14.4985 15.4283 14.7863 15.1405 14.7863 14.7854C14.7863 14.4304 14.4984 14.1426 14.1434 14.1426Z" fill="#6576FF"/>
</g>
<defs>
<clipPath id="clip0">
<rect width="18" height="18" fill="white"/>
</clipPath>
</defs>
</svg>
