<svg width="24" height="24" viewBox="0 0 24 24" fill="none" xmlns="http://www.w3.org/2000/svg">
<circle opacity="0.1" cx="12" cy="12" r="12" fill="white"/>
<g clip-path="url(#clip0)">
<path d="M8.50001 5C8.22386 5 8 5.22386 8 5.50001V6.5H8.99998V5.50001C8.99998 5.22386 8.77613 5 8.50001 5Z" fill="white"/>
<path d="M15.5 5C15.2239 5 15 5.22386 15 5.50001V6.5H16V5.50001C16 5.22386 15.7762 5 15.5 5Z" fill="white"/>
<path d="M17.5 6.5H16V8.50001C16 8.77616 15.7761 9.00002 15.5 9.00002C15.2238 9.00002 15 8.77616 15 8.50001V6.5H8.99999V8.50001C8.99999 8.77616 8.77613 9.00002 8.49998 9.00002C8.22383 9.00002 7.99997 8.77616 7.99997 8.50001V6.5H6.5C5.67157 6.5 5 7.17157 5 8V17.5C5 18.3284 5.67157 19 6.5 19H17.5C18.3284 19 19 18.3284 19 17.5V8C19 7.17157 18.3284 6.5 17.5 6.5ZM18 17.5C18 17.7762 17.7761 18 17.5 18H6.5C6.22385 18 5.99999 17.7762 5.99999 17.5V11H18V17.5Z" fill="white"/>
<path d="M9 12H8.00001C7.72386 12 7.5 12.2239 7.5 12.5C7.5 12.7762 7.72386 13 8.00001 13H9C9.27616 13 9.50002 12.7762 9.50002 12.5C9.50002 12.2239 9.27616 12 9 12Z" fill="white"/>
<path d="M12.5 12H11.5C11.2239 12 11 12.2239 11 12.5C11 12.7762 11.2239 13 11.5 13H12.5C12.7761 13 13 12.7762 13 12.5C13 12.2239 12.7761 12 12.5 12Z" fill="white"/>
<path d="M16 12H15C14.7239 12 14.5 12.2239 14.5 12.5C14.5 12.7762 14.7239 13 15 13H16C16.2762 13 16.5 12.7762 16.5 12.5C16.5 12.2239 16.2761 12 16 12Z" fill="white"/>
<path d="M9 14H8.00001C7.72386 14 7.5 14.2239 7.5 14.5C7.5 14.7762 7.72386 15 8.00001 15H9C9.27616 15 9.50002 14.7762 9.50002 14.5C9.50002 14.2239 9.27616 14 9 14Z" fill="white"/>
<path d="M12.5 14H11.5C11.2239 14 11 14.2239 11 14.5C11 14.7762 11.2239 15 11.5 15H12.5C12.7761 15 13 14.7762 13 14.5C13 14.2239 12.7761 14 12.5 14Z" fill="white"/>
<path d="M16 14H15C14.7239 14 14.5 14.2239 14.5 14.5C14.5 14.7762 14.7239 15 15 15H16C16.2762 15 16.5 14.7762 16.5 14.5C16.5 14.2239 16.2761 14 16 14Z" fill="white"/>
<path d="M9 16H8.00001C7.72386 16 7.5 16.2239 7.5 16.5C7.5 16.7762 7.72386 17 8.00001 17H9C9.27616 17 9.50002 16.7761 9.50002 16.5C9.50002 16.2238 9.27616 16 9 16Z" fill="white"/>
<path d="M12.5 16H11.5C11.2239 16 11 16.2239 11 16.5C11 16.7762 11.2239 17 11.5 17H12.5C12.7761 17 13 16.7762 13 16.5C13 16.2239 12.7761 16 12.5 16Z" fill="white"/>
<path d="M16 16H15C14.7239 16 14.5 16.2239 14.5 16.5C14.5 16.7762 14.7239 17 15 17H16C16.2762 17 16.5 16.7762 16.5 16.5C16.5 16.2239 16.2761 16 16 16Z" fill="white"/>
</g>
<defs>
<clipPath id="clip0">
<rect width="14" height="14" fill="white" transform="translate(5 5)"/>
</clipPath>
</defs>
</svg>
