<svg width="13" height="13" viewBox="0 0 13 13" fill="none" xmlns="http://www.w3.org/2000/svg">
<path d="M6.5 0C2.91584 0 0 2.91584 0 6.5C0 10.0842 2.91584 13 6.5 13C10.0842 13 13 10.0842 13 6.5C13 2.91584 10.0842 0 6.5 0ZM6.5 11.5792C3.69924 11.5792 1.42077 9.30076 1.42077 6.5C1.42077 3.69937 3.69924 1.42077 6.5 1.42077C9.30076 1.42077 11.5792 3.69937 11.5792 6.5C11.5792 9.30076 9.30076 11.5792 6.5 11.5792Z" fill="#99A6B9"/>
<path d="M7.06219 6.50777V3.78347C7.06219 3.47929 6.81569 3.23279 6.51162 3.23279C6.20746 3.23279 5.96094 3.47929 5.96094 3.78347V6.68369C5.96094 6.69235 5.96307 6.70048 5.96349 6.70914C5.95625 6.85887 6.00783 7.01091 6.12219 7.12529L8.17307 9.17602C8.38819 9.39113 8.73683 9.39113 8.95178 9.17602C9.16675 8.96091 9.16689 8.61226 8.95178 8.39729L7.06219 6.50777Z" fill="#99A6B9"/>
</svg>
