<svg width="40" height="32" viewBox="0 0 40 32" fill="none" xmlns="http://www.w3.org/2000/svg">
<path d="M1 12H13" stroke="#19273A" stroke-width="1.5" stroke-linecap="round"/>
<path d="M1 16H9" stroke="#19273A" stroke-width="1.5" stroke-linecap="round"/>
<path d="M1 20H6" stroke="#19273A" stroke-width="1.5" stroke-linecap="round"/>
<path d="M23 0V32" stroke="#E7EFF0"/>
<path d="M32.5311 13.694H39.3731C39.4781 13.694 39.5809 13.7252 39.6682 13.7836C39.7556 13.842 39.8237 13.925 39.8638 14.0221C39.904 14.1192 39.9144 14.2261 39.8938 14.3291C39.8732 14.4322 39.8225 14.5268 39.7481 14.601L36.3281 18.023C36.2281 18.1227 36.0927 18.1787 35.9516 18.1787C35.8104 18.1787 35.675 18.1227 35.5751 18.023L32.1561 14.601C32.0816 14.5268 32.0309 14.4322 32.0103 14.3291C31.9897 14.2261 32.0001 14.1192 32.0403 14.0221C32.0804 13.925 32.1485 13.842 32.2359 13.7836C32.3232 13.7252 32.426 13.694 32.5311 13.694Z" fill="#99A6B9"/>
</svg>
