<svg width="14" height="14" viewBox="0 0 14 14" fill="none" xmlns="http://www.w3.org/2000/svg">
<path d="M1.75 3.56677H2.95H12.55" stroke="#56606D" stroke-width="1.5" stroke-linecap="round" stroke-linejoin="round"/>
<path d="M4.74922 3.56663V2.36663C4.74922 2.04837 4.87565 1.74314 5.10069 1.5181C5.32573 1.29305 5.63096 1.16663 5.94922 1.16663H8.34922C8.66748 1.16663 8.9727 1.29305 9.19775 1.5181C9.42279 1.74314 9.54922 2.04837 9.54922 2.36663V3.56663M11.3492 3.56663V11.9666C11.3492 12.2849 11.2228 12.5901 10.9977 12.8152C10.7727 13.0402 10.4675 13.1666 10.1492 13.1666H4.14922C3.83096 13.1666 3.52573 13.0402 3.30069 12.8152C3.07565 12.5901 2.94922 12.2849 2.94922 11.9666V3.56663H11.3492Z" stroke="#56606D" stroke-width="1.5" stroke-linecap="round" stroke-linejoin="round"/>
<path d="M5.9502 6.56677V10.1668" stroke="#56606D" stroke-width="1.5" stroke-linecap="round" stroke-linejoin="round"/>
<path d="M8.3501 6.56677V10.1668" stroke="#56606D" stroke-width="1.5" stroke-linecap="round" stroke-linejoin="round"/>
</svg>
