<svg width="16" height="20" viewBox="0 0 16 20" fill="none" xmlns="http://www.w3.org/2000/svg">
<path d="M16 5.27344L11.6923 4.10156L10.4615 0H1.84615C0.826544 0 0 0.786992 0 1.75781V18.2422C0 19.213 0.826544 20 1.84615 20H14.1538C15.1735 20 16 19.213 16 18.2422V5.27344Z" fill="#4086F4"/>
<path d="M16 5.27344V18.2422C16 19.213 15.1735 20 14.1538 20H8V0H10.4615L11.6923 4.10156L16 5.27344Z" fill="#4175DF"/>
<path d="M15.9994 5.27344H11.6917C11.0148 5.27344 10.4609 4.74609 10.4609 4.10156V0C10.6209 0 10.7809 0.0585937 10.8917 0.17582L15.8147 4.86332C15.9379 4.96875 15.9994 5.12109 15.9994 5.27344Z" fill="#80AEF8"/>
<path d="M11.6924 9.41406H4.30777C3.96762 9.41406 3.69238 9.15199 3.69238 8.82812C3.69238 8.50426 3.96762 8.24219 4.30777 8.24219H11.6924C12.0325 8.24219 12.3078 8.50426 12.3078 8.82812C12.3078 9.15199 12.0325 9.41406 11.6924 9.41406Z" fill="#FFF5F5"/>
<path d="M11.6924 11.7578H4.30777C3.96762 11.7578 3.69238 11.4957 3.69238 11.1719C3.69238 10.848 3.96762 10.5859 4.30777 10.5859H11.6924C12.0325 10.5859 12.3078 10.848 12.3078 11.1719C12.3078 11.4957 12.0325 11.7578 11.6924 11.7578Z" fill="#FFF5F5"/>
<path d="M11.6924 14.1016H4.30777C3.96762 14.1016 3.69238 13.8395 3.69238 13.5156C3.69238 13.1918 3.96762 12.9297 4.30777 12.9297H11.6924C12.0325 12.9297 12.3078 13.1918 12.3078 13.5156C12.3078 13.8395 12.0325 14.1016 11.6924 14.1016Z" fill="#FFF5F5"/>
<path d="M9.23084 16.4453H4.30777C3.96762 16.4453 3.69238 16.1832 3.69238 15.8594C3.69238 15.5355 3.96762 15.2734 4.30777 15.2734H9.23084C9.57099 15.2734 9.84623 15.5355 9.84623 15.8594C9.84623 16.1832 9.57099 16.4453 9.23084 16.4453Z" fill="#FFF5F5"/>
<path d="M8 16.4453H9.23077C9.57091 16.4453 9.84615 16.1832 9.84615 15.8594C9.84615 15.5355 9.57091 15.2734 9.23077 15.2734H8V16.4453Z" fill="#E3E7EA"/>
<path d="M8 14.1016H11.6923C12.0325 14.1016 12.3077 13.8395 12.3077 13.5156C12.3077 13.1918 12.0325 12.9297 11.6923 12.9297H8V14.1016Z" fill="#E3E7EA"/>
<path d="M8 11.7578H11.6923C12.0325 11.7578 12.3077 11.4957 12.3077 11.1719C12.3077 10.848 12.0325 10.5859 11.6923 10.5859H8V11.7578Z" fill="#E3E7EA"/>
<path d="M8 9.41406H11.6923C12.0325 9.41406 12.3077 9.15199 12.3077 8.82812C12.3077 8.50426 12.0325 8.24219 11.6923 8.24219H8V9.41406Z" fill="#E3E7EA"/>
</svg>
