<svg width="37" height="37" viewBox="0 0 37 37" fill="none" xmlns="http://www.w3.org/2000/svg">
<rect x="0.5" y="0.5" width="36" height="36" rx="5.5" fill="white" stroke="#E7EFF0"/>
<path d="M28.8723 17.6922L26.2637 15.0836C26.0942 14.9136 25.8189 14.9132 25.6489 15.0828C25.5669 15.1646 25.5209 15.2756 25.5212 15.3914V16.6957H20.3041V11.4785H21.6083C21.8484 11.4789 22.0434 11.2846 22.0439 11.0445C22.0441 10.9287 21.9981 10.8177 21.9161 10.7359L19.3076 8.12729C19.1378 7.95757 18.8626 7.95757 18.6928 8.12729L16.0843 10.7359C15.9143 10.9055 15.914 11.1807 16.0835 11.3508C16.1651 11.4325 16.2758 11.4785 16.3912 11.4785H17.6955V16.6957H12.4784V15.3914C12.4789 15.1513 12.2845 14.9563 12.0444 14.9558C11.9287 14.9556 11.8176 15.0016 11.7358 15.0836L9.12729 17.6922C8.95757 17.8619 8.95757 18.1372 9.12729 18.307L11.7358 20.9156C11.9054 21.0856 12.1807 21.0859 12.3507 20.9163C12.4324 20.8348 12.4784 20.7241 12.4784 20.6086V19.3043H17.6955V24.5215H16.3912C16.1511 24.5211 15.9561 24.7154 15.9557 24.9555C15.9555 25.0713 16.0015 25.1823 16.0834 25.2641L18.692 27.8727C18.8617 28.0424 19.1369 28.0424 19.3067 27.8727L21.9153 25.2641C22.0853 25.0945 22.0856 24.8193 21.9161 24.6492C21.8345 24.5675 21.7238 24.5215 21.6083 24.5215H20.3041V19.3043H25.5212V20.6086C25.5207 20.8487 25.715 21.0437 25.9551 21.0442C26.0709 21.0444 26.182 20.9984 26.2637 20.9164L28.8723 18.3078C29.0423 18.1383 29.0426 17.863 28.8731 17.693L28.8723 17.6922Z" fill="#56606D"/>
</svg>
