<svg width="14" height="14" viewBox="0 0 14 14" fill="none" xmlns="http://www.w3.org/2000/svg">
<g clip-path="url(#clip0)">
<path d="M4.75113 13.2962C4.38309 13.665 3.93838 13.8889 3.42467 13.9755C3.39436 13.9806 3.36515 13.9915 3.33521 13.9996C2.39687 13.9996 1.45852 13.9996 0.520171 13.9996C0.404794 13.9258 0.275178 13.867 0.178788 13.7739C0.0991926 13.6972 0.0586648 13.5796 0.000976562 13.4799C0.000976562 12.5413 0.000976562 11.6027 0.000976562 10.6642C0.0265347 10.5539 0.0495369 10.4429 0.0783811 10.3333C0.179883 9.94728 0.368648 9.60874 0.638833 9.31512C0.681917 9.26837 0.727191 9.22309 0.772101 9.1778C3.62548 6.32339 6.48032 3.47043 9.33114 0.613826C9.72328 0.220869 10.1797 -0.00373023 10.7401 -7.82154e-05C11.2261 0.0032086 11.6536 0.166454 12.0012 0.50463C12.5073 0.996922 13.0093 1.4936 13.4982 2.00305C14.1463 2.67831 14.1675 3.75456 13.5621 4.47364C13.5095 4.53609 13.4526 4.59562 13.3945 4.65368C11.1377 6.91282 8.88022 9.17123 6.62344 11.4304L4.75113 13.2962ZM9.93431 1.99502C10.6218 2.68269 11.3185 3.3795 12.0173 4.07886C12.0144 4.08105 12.0268 4.07411 12.0359 4.06461C12.1747 3.92657 12.3149 3.78962 12.4511 3.64902C12.6825 3.40981 12.6811 3.12751 12.4478 2.8872C12.305 2.74039 12.1582 2.59687 12.0133 2.45188C11.7073 2.14585 11.4035 1.83762 11.0943 1.53523C10.8949 1.34021 10.6207 1.31063 10.4276 1.48191C10.245 1.64406 10.0869 1.83396 9.93431 1.99502Z" fill="#56606D"/>
<path d="M6.99678 14.0001C6.95151 13.9807 6.9055 13.9625 6.86096 13.9413C6.56193 13.8018 6.40676 13.4855 6.47649 13.1609C6.54148 12.8592 6.81861 12.6321 7.13772 12.6306C7.82961 12.6273 8.52151 12.6295 9.21304 12.6295C10.5694 12.6295 11.9255 12.6291 13.2819 12.6299C13.6006 12.6299 13.846 12.7938 13.9522 13.0729C14.083 13.4161 13.9197 13.8025 13.582 13.949C13.5455 13.9647 13.5101 13.9829 13.4739 14.0001C11.3146 14.0001 9.15571 14.0001 6.99678 14.0001Z" fill="#56606D"/>
</g>
<defs>
<clipPath id="clip0">
<rect width="14" height="14" fill="white"/>
</clipPath>
</defs>
</svg>
