<svg width="13" height="14" viewBox="0 0 13 14" fill="none" xmlns="http://www.w3.org/2000/svg">
<g clip-path="url(#clip0)">
<path d="M1.00709 9.12086H2.35423C2.40769 9.12086 2.45122 9.07408 2.45122 9.01672V4.98308C2.45122 4.92573 2.40769 4.87894 2.35423 4.87894H1.00709C0.714224 4.87894 0.432989 4.7481 0.235727 4.51995C0.0407515 4.29436 -0.0551472 4.00138 -0.0340796 3.69472C0.00487614 3.1221 0.454355 2.6735 0.989099 2.6735H2.35423C2.40769 2.6735 2.45122 2.62671 2.45122 2.56925V1.12216C2.45122 0.807282 2.57286 0.505005 2.78542 0.293091C2.99511 0.0835264 3.2677 -0.0196537 3.55301 0.00309722C4.08596 0.045181 4.50334 0.52829 4.50334 1.10272V2.56925C4.50334 2.62671 4.54687 2.6735 4.60033 2.6735H8.35308C8.40654 2.6735 8.45007 2.62671 8.45007 2.56925V1.12216C8.45007 0.807282 8.5717 0.505005 8.78397 0.293091C8.99395 0.0835264 9.26624 -0.0196537 9.55185 0.00309722C10.0845 0.045181 10.5019 0.52829 10.5019 1.10272V2.56925C10.5019 2.62671 10.5454 2.6735 10.5991 2.6735H11.9442C12.2372 2.6735 12.5184 2.80423 12.7156 3.03238C12.9106 3.25808 13.0066 3.55106 12.9854 3.85772C12.9462 4.43023 12.4968 4.87894 11.9623 4.87894H10.5991C10.5454 4.87894 10.5019 4.92573 10.5019 4.98308V9.01672C10.5019 9.07408 10.5454 9.12086 10.5991 9.12086H11.9442C12.2372 9.12086 12.5184 9.25192 12.7156 9.48007C12.9106 9.70544 13.0066 9.99874 12.9854 10.3054C12.9462 10.8779 12.4968 11.3265 11.9623 11.3265H10.5991C10.5454 11.3265 10.5019 11.3733 10.5019 11.4308V12.8776C10.5019 13.1927 10.3803 13.4947 10.168 13.707C9.958 13.9166 9.68541 14.0195 9.4001 13.997C8.86745 13.9548 8.45007 13.4717 8.45007 12.897V11.4308C8.45007 11.3733 8.40654 11.3265 8.35308 11.3265H4.60033C4.54687 11.3265 4.50334 11.3733 4.50334 11.4308V12.8776C4.50334 13.1927 4.38141 13.495 4.16914 13.707C3.97834 13.8974 3.73546 14 3.47847 14C3.45293 14 3.42729 13.9988 3.40136 13.997C2.8686 13.9548 2.45122 13.4717 2.45122 12.897V11.4308C2.45122 11.3733 2.40769 11.3265 2.35423 11.3265H0.989099C0.454355 11.3265 0.00487614 10.8779 -0.0340796 10.3054C-0.0551472 9.99874 0.0407515 9.70544 0.235727 9.48007C0.432989 9.25192 0.714224 9.12086 1.00709 9.12086ZM4.50334 9.01672C4.50334 9.07408 4.54687 9.12086 4.60033 9.12086H8.35308C8.40654 9.12086 8.45007 9.07408 8.45007 9.01672V4.98308C8.45007 4.92573 8.40654 4.87894 8.35308 4.87894H4.60033C4.54687 4.87894 4.50334 4.92573 4.50334 4.98308V9.01672Z" fill="#6576FF"/>
</g>
<defs>
<clipPath id="clip0">
<rect width="13" height="14" fill="white" transform="matrix(-1 0 0 1 13 0)"/>
</clipPath>
</defs>
</svg>
