<svg width="14" height="14" viewBox="0 0 14 14" fill="none" xmlns="http://www.w3.org/2000/svg">
<path d="M8.31544 13.9715V13.1514H8.5736C8.79597 13.1514 9.00358 13.1353 9.19776 13.1044C9.39284 13.0722 9.56107 13.0064 9.7038 12.9084C9.84653 12.8104 9.96152 12.6681 10.0479 12.4842C10.1338 12.2999 10.1763 12.0552 10.1763 11.7491V7.17239H3.82416V11.7491C3.82416 12.0547 3.86667 12.299 3.95257 12.4847C4.03848 12.6681 4.15302 12.8109 4.2962 12.9084C4.43937 13.0073 4.60895 13.0717 4.80626 13.1044C5.00403 13.1357 5.20984 13.1518 5.4264 13.1518H5.68456V13.9719H0V13.1518H0.248322C0.470694 13.1518 0.6783 13.1357 0.872931 13.1044C1.06711 13.0726 1.23669 13.0073 1.38345 12.9084C1.52931 12.8095 1.64385 12.6681 1.72752 12.4847C1.80984 12.3004 1.85056 12.0547 1.85056 11.7491V2.17418C1.85056 1.88828 1.80761 1.6583 1.72215 1.48291C1.63535 1.30751 1.51902 1.17284 1.37315 1.07754C1.22685 0.982235 1.05727 0.920043 0.862193 0.891407C0.669351 0.862325 0.463982 0.848454 0.247875 0.848454H0V0.0283203H5.68456V0.848454H5.4264C5.21029 0.848454 5.00447 0.864114 4.80626 0.896329C4.6094 0.927649 4.43982 0.993421 4.2962 1.09185C4.15347 1.19029 4.03893 1.33168 3.95257 1.51646C3.86667 1.70036 3.82416 1.94555 3.82416 2.25069V6.19834H10.1754V2.25069C10.1754 1.9451 10.1324 1.70036 10.047 1.51602C9.96152 1.33168 9.84653 1.18984 9.70336 1.09185C9.56018 0.993421 9.39195 0.928097 9.19732 0.896329C9.00269 0.864114 8.79597 0.848454 8.57271 0.848454H8.31454V0.0283203H13.9991V0.848454H13.7517C13.5289 0.848454 13.3217 0.864114 13.1271 0.896329C12.9329 0.927649 12.7638 0.993421 12.6166 1.09185C12.4707 1.19029 12.3562 1.33168 12.2729 1.51602C12.1897 1.69991 12.149 1.9451 12.149 2.25069V11.8444C12.149 12.1308 12.1924 12.3612 12.2774 12.5357C12.3633 12.7111 12.4801 12.8431 12.626 12.9312C12.7718 13.0207 12.9414 13.0793 13.1365 13.1084C13.3307 13.137 13.5356 13.1514 13.7508 13.1514H13.9996V13.9715H8.31544Z" fill="#6576FF"/>
</svg>
