<svg width="16" height="20" viewBox="0 0 16 20" fill="none" xmlns="http://www.w3.org/2000/svg">
<path d="M11.3433 0H0.544372C0.243721 0 0 0.233929 0 0.687857V19.6429C0 19.7661 0.243721 20 0.544372 20H15.4556C15.7563 20 16 19.7661 16 19.6429V4.635C16 4.38643 15.9654 4.30643 15.9044 4.2475L11.5747 0.0917857C11.5133 0.0332143 11.43 0 11.3433 0Z" fill="#E9E9E0"/>
<path d="M11.5352 0.0539551V4.28574H15.9441L11.5352 0.0539551Z" fill="#D9D7CA"/>
<path d="M4.62587 6.78579C5.56481 6.78579 6.32597 6.05521 6.32597 5.154C6.32597 4.25279 5.56481 3.52222 4.62587 3.52222C3.68694 3.52222 2.92578 4.25279 2.92578 5.154C2.92578 6.05521 3.68694 6.78579 4.62587 6.78579Z" fill="#F3D55B"/>
<path d="M0 13.9286H4.09302H16V10L12.2791 6.60718L8.37209 10.7143L6.33191 8.75611L0 13.9286Z" fill="#26B99A"/>
<path d="M15.4556 20H0.544372C0.243721 20 0 19.7661 0 19.4775V13.9286H16V19.4775C16 19.7661 15.7563 20 15.4556 20Z" fill="#26B99A"/>
</svg>
