<svg width="24" height="24" viewBox="0 0 24 24" fill="none" xmlns="http://www.w3.org/2000/svg">
<circle opacity="0.1" cx="12" cy="12" r="12" fill="#6576FF"/>
<path d="M6.42836 15V9.85711C6.42836 9.85711 11.6284 13.4857 12.1341 13.674C12.6312 13.4943 17.8569 9.85711 17.8569 9.85711V15C17.8569 15.7143 17.7055 15.8571 16.9998 15.8571H7.2855C6.56293 15.8571 6.42836 15.7317 6.42836 15ZM6.43665 8.84882C6.43665 8.32854 6.58836 8.14282 7.2855 8.14282H16.9998C17.7169 8.14282 17.8569 8.36568 17.8569 8.88568L17.8484 8.96568C17.8484 8.96568 12.6858 12.52 12.1341 12.7143C11.5512 12.4885 6.42836 8.88568 6.42836 8.88568L6.43665 8.84882Z" fill="#6576FF"/>
</svg>
