<svg width="16" height="20" viewBox="0 0 16 20" fill="none" xmlns="http://www.w3.org/2000/svg">
<path d="M10.2589 0H1.2959V20H14.7033V4.6875L11.5552 3.51562L10.2589 0Z" fill="#F3EEE9"/>
<path d="M10.2593 0H8V20H14.7037V4.6875L11.5556 3.51562L10.2593 0Z" fill="#E9DFDA"/>
<path d="M10.2588 4.6875H14.7032L10.2588 0V4.6875Z" fill="#DAD0CB"/>
<path d="M0 7.61719H16V16.4453H0V7.61719Z" fill="#FF4B00"/>
<path d="M8 7.61719H16V16.4453H8V7.61719Z" fill="#DD3400"/>
<path d="M3.79659 9.45312H2.14844V14.7656H3.25955V13.0078H3.79659C4.72584 13.0078 5.48177 12.2105 5.48177 11.2305C5.48177 10.2504 4.72584 9.45312 3.79659 9.45312ZM3.79659 11.8359H3.25955V10.625H3.79659C4.11314 10.625 4.37066 10.8966 4.37066 11.2305C4.37066 11.5643 4.11314 11.8359 3.79659 11.8359Z" fill="#FFF3F3"/>
<path d="M7.70388 9.45312H6.59277V14.7656H7.70388C8.92929 14.7656 9.92611 13.7143 9.92611 12.4219V11.7969C9.92611 10.5045 8.92929 9.45312 7.70388 9.45312ZM8.815 12.4219C8.815 13.0681 8.31659 13.5938 7.70388 13.5938V10.625C8.31659 10.625 8.815 11.1507 8.815 11.7969V12.4219Z" fill="#FFF3F3"/>
<path d="M8 9.47473V10.6677C8.46918 10.8048 8.81481 11.2589 8.81481 11.797V12.422C8.81481 12.9598 8.46918 13.4139 8 13.5511V14.7442C9.08565 14.5909 9.92593 13.6082 9.92593 12.4218V11.7968C9.92593 10.6106 9.08565 9.62808 8 9.47473Z" fill="#E9DFDA"/>
<path d="M13.8891 10.625V9.45312H11.1113V14.7656H12.2224V13.1445H13.3336V11.9727H12.2224V10.625H13.8891Z" fill="#E9DFDA"/>
</svg>
