<svg width="24" height="24" viewBox="0 0 24 24" fill="none" xmlns="http://www.w3.org/2000/svg">
<circle opacity="0.1" cx="12" cy="12" r="12" fill="#6576FF"/>
<path d="M16.8163 14.8333L14.5345 12.7586C14.4266 12.6605 14.2848 12.6082 14.1392 12.6127C13.9935 12.6172 13.8552 12.6782 13.7536 12.7827L12.4103 14.1641C12.087 14.1024 11.437 13.8998 10.7679 13.2323C10.0987 12.5627 9.89611 11.9109 9.83604 11.5899L11.2164 10.246C11.321 10.1445 11.382 10.0062 11.3866 9.8605C11.3911 9.71477 11.3387 9.57301 11.2405 9.46521L9.16637 7.18394C9.06816 7.07581 8.93166 7.01021 8.78586 7.0011C8.64007 6.99198 8.49646 7.04005 8.38554 7.13511L7.16744 8.17975C7.07039 8.27715 7.01246 8.40678 7.00465 8.54406C6.99623 8.68439 6.83569 12.0086 9.41335 14.5874C11.6621 16.8355 14.4789 17 15.2546 17C15.368 17 15.4376 16.9966 15.4562 16.9955C15.5934 16.9878 15.723 16.9296 15.8199 16.8322L16.864 15.6135C16.9594 15.5029 17.0079 15.3594 16.999 15.2137C16.99 15.0679 16.9245 14.9314 16.8163 14.8333Z" fill="#6576FF"/>
</svg>
