<svg width="103" height="20" viewBox="0 0 103 20" fill="none" xmlns="http://www.w3.org/2000/svg">
<path d="M0.04 5.2H2.5V6.38H2.66C2.9 5.96667 3.27333 5.61333 3.78 5.32C4.28667 5.02667 4.91333 4.88 5.66 4.88C6.28667 4.88 6.88 5.01333 7.44 5.28C8.01333 5.53333 8.51333 5.89333 8.94 6.36C9.38 6.81333 9.72667 7.36 9.98 8C10.2333 8.64 10.36 9.34 10.36 10.1C10.36 10.86 10.2333 11.56 9.98 12.2C9.72667 12.84 9.38 13.3933 8.94 13.86C8.51333 14.3133 8.01333 14.6733 7.44 14.94C6.88 15.1933 6.28667 15.32 5.66 15.32C4.91333 15.32 4.28667 15.1733 3.78 14.88C3.27333 14.5867 2.9 14.2333 2.66 13.82H2.5L2.66 15.22V19.32H0.04V5.2ZM5.12 12.9C5.46667 12.9 5.79333 12.8333 6.1 12.7C6.42 12.5667 6.7 12.38 6.94 12.14C7.18 11.9 7.37333 11.6067 7.52 11.26C7.66667 10.9133 7.74 10.5267 7.74 10.1C7.74 9.67333 7.66667 9.28667 7.52 8.94C7.37333 8.59333 7.18 8.3 6.94 8.06C6.7 7.82 6.42 7.63333 6.1 7.5C5.79333 7.36667 5.46667 7.3 5.12 7.3C4.77333 7.3 4.44 7.36667 4.12 7.5C3.81333 7.62 3.54 7.8 3.3 8.04C3.06 8.28 2.86667 8.57333 2.72 8.92C2.57333 9.26667 2.5 9.66 2.5 10.1C2.5 10.54 2.57333 10.9333 2.72 11.28C2.86667 11.6267 3.06 11.92 3.3 12.16C3.54 12.4 3.81333 12.5867 4.12 12.72C4.44 12.84 4.77333 12.9 5.12 12.9ZM11.9364 5.2H14.3964V6.56H14.5564C14.6764 6.32 14.8364 6.1 15.0364 5.9C15.2364 5.7 15.4564 5.52667 15.6964 5.38C15.9497 5.23333 16.2164 5.12 16.4964 5.04C16.7897 4.96 17.0764 4.92 17.3564 4.92C17.7031 4.92 17.9964 4.95333 18.2364 5.02C18.4897 5.08667 18.7031 5.17333 18.8764 5.28L18.1764 7.66C18.0164 7.58 17.8364 7.52 17.6364 7.48C17.4497 7.42667 17.2164 7.4 16.9364 7.4C16.5764 7.4 16.2497 7.47333 15.9564 7.62C15.6631 7.75333 15.4097 7.94667 15.1964 8.2C14.9964 8.45333 14.8364 8.75333 14.7164 9.1C14.6097 9.43333 14.5564 9.8 14.5564 10.2V15H11.9364V5.2ZM24.1155 4.88C24.8755 4.88 25.5688 5.01333 26.1955 5.28C26.8355 5.53333 27.3821 5.89333 27.8355 6.36C28.3021 6.81333 28.6621 7.36 28.9155 8C29.1821 8.64 29.3155 9.34 29.3155 10.1C29.3155 10.86 29.1821 11.56 28.9155 12.2C28.6621 12.84 28.3021 13.3933 27.8355 13.86C27.3821 14.3133 26.8355 14.6733 26.1955 14.94C25.5688 15.1933 24.8755 15.32 24.1155 15.32C23.3555 15.32 22.6555 15.1933 22.0155 14.94C21.3888 14.6733 20.8421 14.3133 20.3755 13.86C19.9221 13.3933 19.5621 12.84 19.2955 12.2C19.0421 11.56 18.9155 10.86 18.9155 10.1C18.9155 9.34 19.0421 8.64 19.2955 8C19.5621 7.36 19.9221 6.81333 20.3755 6.36C20.8421 5.89333 21.3888 5.53333 22.0155 5.28C22.6555 5.01333 23.3555 4.88 24.1155 4.88ZM24.1155 12.9C24.4488 12.9 24.7688 12.84 25.0755 12.72C25.3955 12.5867 25.6755 12.4 25.9155 12.16C26.1555 11.92 26.3421 11.6267 26.4755 11.28C26.6221 10.9333 26.6955 10.54 26.6955 10.1C26.6955 9.66 26.6221 9.26667 26.4755 8.92C26.3421 8.57333 26.1555 8.28 25.9155 8.04C25.6755 7.8 25.3955 7.62 25.0755 7.5C24.7688 7.36667 24.4488 7.3 24.1155 7.3C23.7688 7.3 23.4421 7.36667 23.1355 7.5C22.8288 7.62 22.5555 7.8 22.3155 8.04C22.0755 8.28 21.8821 8.57333 21.7355 8.92C21.6021 9.26667 21.5355 9.66 21.5355 10.1C21.5355 10.54 21.6021 10.9333 21.7355 11.28C21.8821 11.6267 22.0755 11.92 22.3155 12.16C22.5555 12.4 22.8288 12.5867 23.1355 12.72C23.4421 12.84 23.7688 12.9 24.1155 12.9ZM29.4812 16.92C29.5879 16.9867 29.6879 17.0333 29.7812 17.06C29.8879 17.0867 30.0146 17.1 30.1613 17.1C30.7613 17.1 31.0613 16.7067 31.0613 15.92V5.2H33.6813V16C33.6813 16.64 33.5946 17.18 33.4213 17.62C33.2479 18.0733 33.0146 18.44 32.7212 18.72C32.4279 19 32.0879 19.2 31.7013 19.32C31.3146 19.4533 30.9013 19.52 30.4613 19.52C30.1279 19.52 29.8279 19.4933 29.5612 19.44C29.2946 19.4 29.0479 19.3333 28.8212 19.24L29.4812 16.92ZM32.3613 3.78C32.1346 3.78 31.9146 3.74 31.7013 3.66C31.5013 3.56667 31.3213 3.44667 31.1613 3.3C31.0146 3.14 30.8946 2.96 30.8013 2.76C30.7213 2.56 30.6813 2.34 30.6813 2.1C30.6813 1.86 30.7213 1.64 30.8013 1.44C30.8946 1.24 31.0146 1.06667 31.1613 0.919999C31.3213 0.759999 31.5013 0.639999 31.7013 0.559999C31.9146 0.466666 32.1346 0.419999 32.3613 0.419999C32.8279 0.419999 33.2279 0.586666 33.5613 0.919999C33.8946 1.24 34.0613 1.63333 34.0613 2.1C34.0613 2.56667 33.8946 2.96667 33.5613 3.3C33.2279 3.62 32.8279 3.78 32.3613 3.78ZM45.2594 12.64C44.806 13.44 44.1927 14.0867 43.4194 14.58C42.6594 15.0733 41.726 15.32 40.6194 15.32C39.8727 15.32 39.1794 15.1933 38.5394 14.94C37.9127 14.6733 37.366 14.3067 36.8994 13.84C36.4327 13.3733 36.066 12.8267 35.7994 12.2C35.546 11.56 35.4194 10.86 35.4194 10.1C35.4194 9.39333 35.546 8.72667 35.7994 8.1C36.0527 7.46 36.406 6.90667 36.8594 6.44C37.3127 5.96 37.846 5.58 38.4594 5.3C39.086 5.02 39.7727 4.88 40.5194 4.88C41.306 4.88 42.006 5.01333 42.6194 5.28C43.2327 5.53333 43.746 5.89333 44.1594 6.36C44.5727 6.81333 44.886 7.35333 45.0994 7.98C45.3127 8.60667 45.4194 9.28667 45.4194 10.02C45.4194 10.1133 45.4194 10.1933 45.4194 10.26C45.406 10.34 45.3994 10.4133 45.3994 10.48C45.386 10.5467 45.3794 10.62 45.3794 10.7H37.9994C38.0527 11.1 38.1594 11.4467 38.3194 11.74C38.4927 12.02 38.6994 12.26 38.9394 12.46C39.1927 12.6467 39.466 12.7867 39.7594 12.88C40.0527 12.96 40.3527 13 40.6594 13C41.2594 13 41.7527 12.8667 42.1394 12.6C42.5394 12.32 42.8527 11.9733 43.0794 11.56L45.2594 12.64ZM42.8794 8.84C42.866 8.66667 42.806 8.47333 42.6994 8.26C42.606 8.04667 42.4594 7.84667 42.2594 7.66C42.0727 7.47333 41.8327 7.32 41.5394 7.2C41.2594 7.08 40.9194 7.02 40.5194 7.02C39.9594 7.02 39.466 7.18 39.0394 7.5C38.6127 7.82 38.3127 8.26667 38.1394 8.84H42.8794ZM56.4903 12.5C56.0636 13.3267 55.4636 14.0067 54.6903 14.54C53.9303 15.06 52.977 15.32 51.8303 15.32C51.0703 15.32 50.3703 15.1933 49.7303 14.94C49.1036 14.6733 48.557 14.3067 48.0903 13.84C47.637 13.3733 47.277 12.8267 47.0103 12.2C46.757 11.56 46.6303 10.86 46.6303 10.1C46.6303 9.34 46.757 8.64 47.0103 8C47.277 7.36 47.637 6.81333 48.0903 6.36C48.557 5.89333 49.1036 5.53333 49.7303 5.28C50.3703 5.01333 51.0703 4.88 51.8303 4.88C52.9636 4.88 53.917 5.14 54.6903 5.66C55.4636 6.18 56.0303 6.85333 56.3903 7.68L53.9903 8.68C53.7636 8.22667 53.4703 7.88667 53.1103 7.66C52.7636 7.42 52.3236 7.3 51.7903 7.3C51.4436 7.3 51.117 7.36667 50.8103 7.5C50.5036 7.63333 50.2303 7.82 49.9903 8.06C49.7636 8.3 49.5836 8.59333 49.4503 8.94C49.317 9.28667 49.2503 9.67333 49.2503 10.1C49.2503 10.5267 49.317 10.9133 49.4503 11.26C49.5836 11.6067 49.7636 11.9 49.9903 12.14C50.2303 12.38 50.5036 12.5667 50.8103 12.7C51.117 12.8333 51.4436 12.9 51.7903 12.9C52.337 12.9 52.797 12.78 53.1703 12.54C53.557 12.2867 53.8636 11.9267 54.0903 11.46L56.4903 12.5ZM59.0711 7.44H57.3511V5.2H59.0711V2.2H61.6911V5.2H64.0911V7.44H61.6911V11.24C61.6911 11.4667 61.7111 11.68 61.7511 11.88C61.8044 12.0667 61.8978 12.2267 62.0311 12.36C62.2178 12.5733 62.4844 12.68 62.8311 12.68C63.0578 12.68 63.2378 12.66 63.3711 12.62C63.5044 12.5667 63.6311 12.5 63.7511 12.42L64.4911 14.72C64.1844 14.8667 63.8511 14.9733 63.4911 15.04C63.1444 15.12 62.7578 15.16 62.3311 15.16C61.8378 15.16 61.3911 15.0867 60.9911 14.94C60.6044 14.78 60.2778 14.5667 60.0111 14.3C59.3844 13.7 59.0711 12.8467 59.0711 11.74V7.44ZM70.5608 4.88C71.3208 4.88 72.0141 5.01333 72.6408 5.28C73.2808 5.53333 73.8274 5.89333 74.2808 6.36C74.7474 6.81333 75.1074 7.36 75.3608 8C75.6274 8.64 75.7608 9.34 75.7608 10.1C75.7608 10.86 75.6274 11.56 75.3608 12.2C75.1074 12.84 74.7474 13.3933 74.2808 13.86C73.8274 14.3133 73.2808 14.6733 72.6408 14.94C72.0141 15.1933 71.3208 15.32 70.5608 15.32C69.8008 15.32 69.1008 15.1933 68.4608 14.94C67.8341 14.6733 67.2874 14.3133 66.8208 13.86C66.3674 13.3933 66.0074 12.84 65.7408 12.2C65.4874 11.56 65.3608 10.86 65.3608 10.1C65.3608 9.34 65.4874 8.64 65.7408 8C66.0074 7.36 66.3674 6.81333 66.8208 6.36C67.2874 5.89333 67.8341 5.53333 68.4608 5.28C69.1008 5.01333 69.8008 4.88 70.5608 4.88ZM70.5608 12.9C70.8941 12.9 71.2141 12.84 71.5208 12.72C71.8408 12.5867 72.1208 12.4 72.3608 12.16C72.6008 11.92 72.7874 11.6267 72.9208 11.28C73.0674 10.9333 73.1408 10.54 73.1408 10.1C73.1408 9.66 73.0674 9.26667 72.9208 8.92C72.7874 8.57333 72.6008 8.28 72.3608 8.04C72.1208 7.8 71.8408 7.62 71.5208 7.5C71.2141 7.36667 70.8941 7.3 70.5608 7.3C70.2141 7.3 69.8874 7.36667 69.5808 7.5C69.2741 7.62 69.0008 7.8 68.7608 8.04C68.5208 8.28 68.3274 8.57333 68.1808 8.92C68.0474 9.26667 67.9808 9.66 67.9808 10.1C67.9808 10.54 68.0474 10.9333 68.1808 11.28C68.3274 11.6267 68.5208 11.92 68.7608 12.16C69.0008 12.4 69.2741 12.5867 69.5808 12.72C69.8874 12.84 70.2141 12.9 70.5608 12.9ZM77.2666 5.2H79.7266V6.38H79.8866C80.1266 5.96667 80.4999 5.61333 81.0066 5.32C81.5132 5.02667 82.1399 4.88 82.8866 4.88C83.5132 4.88 84.1066 5.01333 84.6666 5.28C85.2399 5.53333 85.7399 5.89333 86.1666 6.36C86.6066 6.81333 86.9532 7.36 87.2066 8C87.4599 8.64 87.5866 9.34 87.5866 10.1C87.5866 10.86 87.4599 11.56 87.2066 12.2C86.9532 12.84 86.6066 13.3933 86.1666 13.86C85.7399 14.3133 85.2399 14.6733 84.6666 14.94C84.1066 15.1933 83.5132 15.32 82.8866 15.32C82.1399 15.32 81.5132 15.1733 81.0066 14.88C80.4999 14.5867 80.1266 14.2333 79.8866 13.82H79.7266L79.8866 15.22V19.32H77.2666V5.2ZM82.3466 12.9C82.6932 12.9 83.0199 12.8333 83.3266 12.7C83.6466 12.5667 83.9266 12.38 84.1666 12.14C84.4066 11.9 84.5999 11.6067 84.7466 11.26C84.8932 10.9133 84.9666 10.5267 84.9666 10.1C84.9666 9.67333 84.8932 9.28667 84.7466 8.94C84.5999 8.59333 84.4066 8.3 84.1666 8.06C83.9266 7.82 83.6466 7.63333 83.3266 7.5C83.0199 7.36667 82.6932 7.3 82.3466 7.3C81.9999 7.3 81.6666 7.36667 81.3466 7.5C81.0399 7.62 80.7666 7.8 80.5266 8.04C80.2866 8.28 80.0932 8.57333 79.9466 8.92C79.7999 9.26667 79.7266 9.66 79.7266 10.1C79.7266 10.54 79.7999 10.9333 79.9466 11.28C80.0932 11.6267 80.2866 11.92 80.5266 12.16C80.7666 12.4 81.0399 12.5867 81.3466 12.72C81.6666 12.84 81.9999 12.9 82.3466 12.9ZM90.623 3.78C90.3963 3.78 90.1763 3.74 89.963 3.66C89.763 3.56667 89.583 3.44667 89.423 3.3C89.2763 3.14 89.1563 2.96 89.063 2.76C88.983 2.56 88.943 2.34 88.943 2.1C88.943 1.86 88.983 1.64 89.063 1.44C89.1563 1.24 89.2763 1.06667 89.423 0.919999C89.583 0.759999 89.763 0.639999 89.963 0.559999C90.1763 0.466666 90.3963 0.419999 90.623 0.419999C91.0896 0.419999 91.4896 0.586666 91.823 0.919999C92.1563 1.24 92.323 1.63333 92.323 2.1C92.323 2.56667 92.1563 2.96667 91.823 3.3C91.4896 3.62 91.0896 3.78 90.623 3.78ZM89.323 15V5.2H91.943V15H89.323ZM100.281 13.96H100.121C99.8144 14.3333 99.4411 14.6533 99.0011 14.92C98.5744 15.1867 98.0211 15.32 97.3411 15.32C96.8344 15.32 96.3544 15.2333 95.9011 15.06C95.4611 14.9 95.0744 14.6733 94.7411 14.38C94.4078 14.0867 94.1478 13.7333 93.9611 13.32C93.7744 12.9067 93.6811 12.4533 93.6811 11.96C93.6811 11.4533 93.7811 11 93.9811 10.6C94.1811 10.1867 94.4611 9.83333 94.8211 9.54C95.1811 9.24667 95.6011 9.02667 96.0811 8.88C96.5744 8.72 97.1078 8.64 97.6811 8.64C98.3211 8.64 98.8478 8.69333 99.2611 8.8C99.6744 8.89333 100.014 8.99333 100.281 9.1V8.8C100.281 8.28 100.074 7.85333 99.6611 7.52C99.2478 7.17333 98.7344 7 98.1211 7C97.2144 7 96.4478 7.38 95.8211 8.14L93.9211 6.84C94.9611 5.53333 96.3811 4.88 98.1811 4.88C99.7011 4.88 100.861 5.24 101.661 5.96C102.461 6.66667 102.861 7.72 102.861 9.12V15H100.281V13.96ZM100.281 11.02C99.9744 10.8733 99.6544 10.76 99.3211 10.68C99.0011 10.5867 98.6478 10.54 98.2611 10.54C97.6344 10.54 97.1478 10.68 96.8011 10.96C96.4678 11.2267 96.3011 11.56 96.3011 11.96C96.3011 12.36 96.4611 12.68 96.7811 12.92C97.1144 13.16 97.4944 13.28 97.9211 13.28C98.2678 13.28 98.5878 13.22 98.8811 13.1C99.1744 12.9667 99.4211 12.8 99.6211 12.6C99.8344 12.3867 99.9944 12.1467 100.101 11.88C100.221 11.6 100.281 11.3133 100.281 11.02Z" fill="white"/>
</svg>
