<svg width="48" height="48" viewBox="0 0 48 48" fill="none" xmlns="http://www.w3.org/2000/svg">
<rect opacity="0.1" width="48" height="48" rx="10" fill="#00CD98"/>
<path d="M25.3496 27.6318C26.3264 27.3919 27.0488 26.7632 27.0488 26.0406C27.0488 25.318 26.3264 24.6893 25.3496 24.4495V27.6318Z" fill="#00CD98"/>
<path d="M24.5 14.1543C19.3468 14.1543 15.1543 18.3468 15.1543 23.5C15.1543 28.6532 19.3468 32.8457 24.5 32.8457C29.6532 32.8457 33.8457 28.6532 33.8457 23.5C33.8457 18.3468 29.6532 14.1543 24.5 14.1543ZM28.748 26.0406C28.748 27.682 27.2862 29.0545 25.3496 29.3702V30.2969C25.3496 30.7665 24.9696 31.1465 24.5 31.1465C24.0304 31.1465 23.6504 30.7665 23.6504 30.2969V29.3702C21.7138 29.0545 20.252 27.682 20.252 26.0406C20.252 25.571 20.632 25.1909 21.1016 25.1909C21.5712 25.1909 21.9512 25.571 21.9512 26.0406C21.9512 26.7631 22.6736 27.3918 23.6504 27.6317V24.2726C21.7138 23.9569 20.252 22.5843 20.252 20.9429C20.252 19.3015 21.7138 17.9289 23.6504 17.6132V16.6949C23.6504 16.2252 24.0304 15.8452 24.5 15.8452C24.9696 15.8452 25.3496 16.2252 25.3496 16.6949V17.6132C27.2862 17.9289 28.748 19.3015 28.748 20.9429C28.748 21.4125 28.368 21.7925 27.8984 21.7925C27.4288 21.7925 27.0488 21.4125 27.0488 20.9429C27.0488 20.2203 26.3264 19.5916 25.3496 19.3518V22.7109C27.2862 23.0265 28.748 24.3991 28.748 26.0406Z" fill="#00CD98"/>
<path d="M23.6504 19.3518C22.6736 19.5917 21.9512 20.2204 21.9512 20.943C21.9512 21.6655 22.6736 22.2942 23.6504 22.5341V19.3518Z" fill="#00CD98"/>
<path d="M24.5 9C16.5358 9 10 15.5358 10 23.5C10 31.4642 16.5358 38 24.5 38C32.4642 38 39 31.4642 39 23.5C39 15.5358 32.4642 9 24.5 9ZM24.5 34.5449C18.41 34.5449 13.4551 29.59 13.4551 23.5C13.4551 17.41 18.41 12.4551 24.5 12.4551C30.59 12.4551 35.5449 17.41 35.5449 23.5C35.5449 29.59 30.59 34.5449 24.5 34.5449Z" fill="#00CD98"/>
</svg>
