<svg width="22" height="22" viewBox="0 0 22 22" fill="none" xmlns="http://www.w3.org/2000/svg">
<path d="M3.3 17.5999V21.7425L4.9665 20.7426L10.2047 17.5999H15.4C16.6133 17.5999 17.6 16.6132 17.6 15.3999V6.5999C17.6 5.3866 16.6133 4.3999 15.4 4.3999H2.2C0.9867 4.3999 0 5.3866 0 6.5999V15.3999C0 16.6132 0.9867 17.5999 2.2 17.5999H3.3Z" fill="white"/>
<path d="M19.8 0H6.60002C5.38672 0 4.40002 0.9867 4.40002 2.2H17.6C18.8133 2.2 19.8 3.1867 19.8 4.4V13.2C21.0133 13.2 22 12.2133 22 11V2.2C22 0.9867 21.0133 0 19.8 0Z" fill="white"/>
</svg>
