<svg width="16" height="16" viewBox="0 0 16 16" fill="none" xmlns="http://www.w3.org/2000/svg">
<path d="M6.43437 12.7164C6.43437 13.2951 5.96304 13.7664 5.38437 13.7664H3.28438C2.70571 13.7664 2.23438 13.2951 2.23438 12.7164V10.6164C2.23438 10.0377 2.70571 9.56641 3.28438 9.56641H5.38437C5.96304 9.56641 6.43437 10.0377 6.43437 10.6164V12.7164Z" fill="white"/>
<mask id="path-2-inside-1" fill="white">
<path d="M14.1667 16H1.83333C0.822 16 0 15.178 0 14.1667V1.83333C0 0.822 0.822 0 1.83333 0H14.1667C15.178 0 16 0.822 16 1.83333V14.1667C16 15.178 15.178 16 14.1667 16ZM1.83333 1C1.374 1 1 1.374 1 1.83333V14.1667C1 14.626 1.374 15 1.83333 15H14.1667C14.626 15 15 14.626 15 14.1667V1.83333C15 1.374 14.626 1 14.1667 1H1.83333Z"/>
</mask>
<path d="M14.1667 16H1.83333C0.822 16 0 15.178 0 14.1667V1.83333C0 0.822 0.822 0 1.83333 0H14.1667C15.178 0 16 0.822 16 1.83333V14.1667C16 15.178 15.178 16 14.1667 16ZM1.83333 1C1.374 1 1 1.374 1 1.83333V14.1667C1 14.626 1.374 15 1.83333 15H14.1667C14.626 15 15 14.626 15 14.1667V1.83333C15 1.374 14.626 1 14.1667 1H1.83333Z" fill="#6576FF"/>
<path d="M14.1667 11H1.83333V21H14.1667V11ZM1.83333 11C3.58342 11 5 12.4166 5 14.1667H-5C-5 17.9394 -1.93942 21 1.83333 21V11ZM5 14.1667V1.83333H-5V14.1667H5ZM5 1.83333C5 3.58342 3.58342 5 1.83333 5V-5C-1.93942 -5 -5 -1.93942 -5 1.83333H5ZM1.83333 5H14.1667V-5H1.83333V5ZM14.1667 5C12.4166 5 11 3.58342 11 1.83333H21C21 -1.93942 17.9394 -5 14.1667 -5V5ZM11 1.83333V14.1667H21V1.83333H11ZM11 14.1667C11 12.4166 12.4166 11 14.1667 11V21C17.9394 21 21 17.9394 21 14.1667H11ZM1.83333 -4C-1.38742 -4 -4 -1.38742 -4 1.83333H6C6 4.13542 4.13542 6 1.83333 6V-4ZM-4 1.83333V14.1667H6V1.83333H-4ZM-4 14.1667C-4 17.3874 -1.38742 20 1.83333 20V10C4.13542 10 6 11.8646 6 14.1667H-4ZM1.83333 20H14.1667V10H1.83333V20ZM14.1667 20C17.3874 20 20 17.3874 20 14.1667H10C10 11.8646 11.8646 10 14.1667 10V20ZM20 14.1667V1.83333H10V14.1667H20ZM20 1.83333C20 -1.38742 17.3874 -4 14.1667 -4V6C11.8646 6 10 4.13542 10 1.83333H20ZM14.1667 -4H1.83333V6H14.1667V-4Z" fill="#6576FF" mask="url(#path-2-inside-1)"/>
<path d="M12.625 5H9.375C9.168 5 9 4.776 9 4.5C9 4.224 9.168 4 9.375 4H12.625C12.832 4 13 4.224 13 4.5C13 4.776 12.832 5 12.625 5Z" fill="#6576FF"/>
<path d="M12.625 7H9.375C9.168 7 9 6.776 9 6.5C9 6.224 9.168 6 9.375 6H12.625C12.832 6 13 6.224 13 6.5C13 6.776 12.832 7 12.625 7Z" fill="#6576FF"/>
<path d="M4.62933 7C4.49121 7 4.35997 6.94399 4.27122 6.84741L3.11064 5.59011C2.94378 5.40951 2.96815 5.13919 3.16689 4.9866C3.36438 4.83344 3.66 4.85744 3.82749 5.03804L4.62996 5.90729L7.17297 3.15266C7.34047 2.97149 7.63546 2.94806 7.83357 3.10122C8.03169 3.25439 8.05606 3.52413 7.88982 3.7053L4.98807 6.84855C4.89869 6.94399 4.76745 7 4.62933 7Z" fill="#6576FF"/>
<path d="M6 13H4C3.44857 13 3 12.5514 3 12V10C3 9.44857 3.44857 9 4 9H6C6.55143 9 7 9.44857 7 10V12C7 12.5514 6.55143 13 6 13ZM4 9.85714C3.92114 9.85714 3.85714 9.92114 3.85714 10V12C3.85714 12.0789 3.92114 12.1429 4 12.1429H6C6.07886 12.1429 6.14286 12.0789 6.14286 12V10C6.14286 9.92114 6.07886 9.85714 6 9.85714H4Z" fill="#6576FF"/>
<path d="M12.625 10H9.375C9.168 10 9 9.776 9 9.5C9 9.224 9.168 9 9.375 9H12.625C12.832 9 13 9.224 13 9.5C13 9.776 12.832 10 12.625 10Z" fill="#6576FF"/>
<path d="M12.625 12H9.375C9.168 12 9 11.776 9 11.5C9 11.224 9.168 11 9.375 11H12.625C12.832 11 13 11.224 13 11.5C13 11.776 12.832 12 12.625 12Z" fill="#6576FF"/>
</svg>
