<svg width="16" height="16" viewBox="0 0 16 16" fill="none" xmlns="http://www.w3.org/2000/svg">
<path d="M6.43437 12.7164C6.43437 13.2951 5.96304 13.7664 5.38437 13.7664H3.28438C2.70571 13.7664 2.23438 13.2951 2.23438 12.7164V10.6164C2.23438 10.0377 2.70571 9.56641 3.28438 9.56641H5.38437C5.96304 9.56641 6.43437 10.0377 6.43437 10.6164V12.7164Z" fill="white"/>
<mask id="path-2-inside-1" fill="white">
<path d="M14.1667 16H1.83333C0.822 16 0 15.178 0 14.1667V1.83333C0 0.822 0.822 0 1.83333 0H14.1667C15.178 0 16 0.822 16 1.83333V14.1667C16 15.178 15.178 16 14.1667 16ZM1.83333 1C1.374 1 1 1.374 1 1.83333V14.1667C1 14.626 1.374 15 1.83333 15H14.1667C14.626 15 15 14.626 15 14.1667V1.83333C15 1.374 14.626 1 14.1667 1H1.83333Z"/>
</mask>
<path d="M14.1667 16H1.83333C0.822 16 0 15.178 0 14.1667V1.83333C0 0.822 0.822 0 1.83333 0H14.1667C15.178 0 16 0.822 16 1.83333V14.1667C16 15.178 15.178 16 14.1667 16ZM1.83333 1C1.374 1 1 1.374 1 1.83333V14.1667C1 14.626 1.374 15 1.83333 15H14.1667C14.626 15 15 14.626 15 14.1667V1.83333C15 1.374 14.626 1 14.1667 1H1.83333Z" fill="#6576FF"/>
<path d="M14.1667 11H1.83333V21H14.1667V11ZM1.83333 11C3.58342 11 5 12.4166 5 14.1667H-5C-5 17.9394 -1.93942 21 1.83333 21V11ZM5 14.1667V1.83333H-5V14.1667H5ZM5 1.83333C5 3.58342 3.58342 5 1.83333 5V-5C-1.93942 -5 -5 -1.93942 -5 1.83333H5ZM1.83333 5H14.1667V-5H1.83333V5ZM14.1667 5C12.4166 5 11 3.58342 11 1.83333H21C21 -1.93942 17.9394 -5 14.1667 -5V5ZM11 1.83333V14.1667H21V1.83333H11ZM11 14.1667C11 12.4166 12.4166 11 14.1667 11V21C17.9394 21 21 17.9394 21 14.1667H11ZM1.83333 -4C-1.38742 -4 -4 -1.38742 -4 1.83333H6C6 4.13542 4.13542 6 1.83333 6V-4ZM-4 1.83333V14.1667H6V1.83333H-4ZM-4 14.1667C-4 17.3874 -1.38742 20 1.83333 20V10C4.13542 10 6 11.8646 6 14.1667H-4ZM1.83333 20H14.1667V10H1.83333V20ZM14.1667 20C17.3874 20 20 17.3874 20 14.1667H10C10 11.8646 11.8646 10 14.1667 10V20ZM20 14.1667V1.83333H10V14.1667H20ZM20 1.83333C20 -1.38742 17.3874 -4 14.1667 -4V6C11.8646 6 10 4.13542 10 1.83333H20ZM14.1667 -4H1.83333V6H14.1667V-4Z" fill="#6576FF" mask="url(#path-2-inside-1)"/>
<path d="M7.24 12V6.12H5.24V4.84H10.59V6.12H8.59V12H7.24Z" fill="#6576FF"/>
</svg>
