<svg width="32" height="32" viewBox="0 0 32 32" fill="none" xmlns="http://www.w3.org/2000/svg">
<circle cx="16" cy="16" r="16" fill="#ECEFFF"/>
<path d="M23.0714 7H8.92857C7.86345 7 7 7.86345 7 8.92857V23.0714C7 24.1365 7.86345 25 8.92857 25H23.0714C24.1365 25 25 24.1365 25 23.0714V8.92857C25 7.86345 24.1365 7 23.0714 7ZM12.7857 21.1429H10.8571C10.5021 21.1429 10.2143 20.855 10.2143 20.5C10.2143 20.1449 10.5021 19.8571 10.8571 19.8571H12.7857C13.1408 19.8571 13.4286 20.1449 13.4286 20.5C13.4286 20.855 13.1408 21.1429 12.7857 21.1429ZM12.7857 16.6428H10.8571C10.5021 16.6428 10.2143 16.355 10.2143 16C10.2143 15.6449 10.5021 15.3571 10.8571 15.3571H12.7857C13.1408 15.3571 13.4286 15.6449 13.4286 16C13.4286 16.355 13.1408 16.6428 12.7857 16.6428ZM12.7857 12.1428H10.8571C10.5021 12.1428 10.2143 11.855 10.2143 11.5C10.2143 11.1449 10.5021 10.8571 10.8571 10.8571H12.7857C13.1408 10.8571 13.4286 11.145 13.4286 11.5C13.4286 11.8551 13.1408 12.1428 12.7857 12.1428ZM21.1429 21.1429H15.3571C15.0021 21.1429 14.7143 20.855 14.7143 20.5C14.7143 20.1449 15.0021 19.8571 15.3571 19.8571H21.1429C21.4979 19.8571 21.7857 20.1449 21.7857 20.5C21.7857 20.855 21.4979 21.1429 21.1429 21.1429ZM21.1429 16.6428H15.3571C15.0021 16.6428 14.7143 16.355 14.7143 16C14.7143 15.6449 15.0021 15.3571 15.3571 15.3571H21.1429C21.4979 15.3571 21.7857 15.6449 21.7857 16C21.7857 16.355 21.4979 16.6428 21.1429 16.6428ZM21.1429 12.1428H15.3571C15.0021 12.1428 14.7143 11.855 14.7143 11.5C14.7143 11.1449 15.0021 10.8571 15.3571 10.8571H21.1429C21.4979 10.8571 21.7857 11.1449 21.7857 11.5C21.7857 11.855 21.4979 12.1428 21.1429 12.1428Z" fill="#6576FF"/>
</svg>
