<svg width="24" height="24" viewBox="0 0 24 24" fill="none" xmlns="http://www.w3.org/2000/svg">
<circle opacity="0.1" cx="12" cy="12" r="12" fill="white"/>
<g clip-path="url(#clip0)">
<path d="M13.9472 11.3596C13.3978 11.056 12.8137 10.8247 12.2354 10.5847C11.9 10.4459 11.579 10.284 11.2957 10.0585C10.7376 9.61317 10.8446 8.8903 11.4981 8.60405C11.6831 8.52309 11.8769 8.49706 12.0735 8.4855C12.831 8.44502 13.551 8.58381 14.2363 8.91343C14.5775 9.07825 14.6903 9.0262 14.8059 8.67055C14.9274 8.29466 15.0286 7.91299 15.1413 7.53421C15.2165 7.27976 15.124 7.11205 14.884 7.00507C14.4445 6.81134 13.9934 6.67255 13.5192 6.59737C12.9004 6.50195 12.9004 6.49906 12.8976 5.8774C12.8947 5.00129 12.8947 5.00129 12.0157 5.00129C11.8884 5.00129 11.7612 4.99839 11.634 5.00129C11.2234 5.01285 11.154 5.08514 11.1424 5.49862C11.1366 5.68367 11.1424 5.86872 11.1395 6.05667C11.1366 6.60605 11.1338 6.59737 10.6075 6.78821C9.33527 7.25084 8.54879 8.11828 8.46494 9.50618C8.38976 10.7351 9.03166 11.5649 10.0408 12.1692C10.6624 12.5422 11.3506 12.762 12.0099 13.054C12.2672 13.1668 12.513 13.2969 12.727 13.4762C13.3602 13.9995 13.2445 14.8698 12.4927 15.1995C12.0908 15.3759 11.6658 15.4192 11.2292 15.3643C10.5555 15.2804 9.91067 15.1041 9.30346 14.7889C8.94781 14.6038 8.84372 14.653 8.72228 15.0376C8.61819 15.3701 8.52566 15.7055 8.43313 16.0409C8.3088 16.492 8.35506 16.5989 8.78589 16.81C9.33527 17.076 9.92224 17.2119 10.5208 17.3074C10.9892 17.3825 11.0036 17.4028 11.0094 17.8885C11.0123 18.1083 11.0123 18.3309 11.0152 18.5507C11.0181 18.8283 11.1511 18.9902 11.4374 18.996C11.7612 19.0017 12.0879 19.0017 12.4118 18.9931C12.6778 18.9873 12.8137 18.8427 12.8137 18.5738C12.8137 18.2731 12.8282 17.9695 12.8166 17.6688C12.8021 17.3623 12.9351 17.2062 13.2301 17.1252C13.9096 16.9401 14.4879 16.5758 14.9331 16.0322C16.1707 14.5287 15.6994 12.3283 13.9472 11.3596Z" fill="white"/>
</g>
<defs>
<clipPath id="clip0">
<rect width="14" height="14" fill="white" transform="translate(5 5)"/>
</clipPath>
</defs>
</svg>
