<svg width="32" height="32" viewBox="0 0 32 32" fill="none" xmlns="http://www.w3.org/2000/svg">
<circle cx="16" cy="16" r="16" fill="#ECEFFF"/>
<path d="M17.8622 11.0259C18.6945 11.5477 19.2781 12.4308 19.3844 13.4558C19.7238 13.6144 20.1005 13.7056 20.4999 13.7056C21.958 13.7056 23.1398 12.5238 23.1398 11.0659C23.1398 9.60778 21.958 8.42598 20.4999 8.42598C19.0557 8.42643 17.8842 9.58712 17.8622 11.0259ZM16.1328 16.4311C17.5909 16.4311 18.7727 15.249 18.7727 13.7912C18.7727 12.3333 17.5906 11.1515 16.1328 11.1515C14.6749 11.1515 13.4924 12.3335 13.4924 13.7914C13.4924 15.2493 14.6749 16.4311 16.1328 16.4311ZM17.2526 16.611H15.0125C13.1487 16.611 11.6324 18.1275 11.6324 19.9913V22.7307L11.6394 22.7736L11.8281 22.8327C13.6067 23.3885 15.152 23.5738 16.4239 23.5738C18.9081 23.5738 20.348 22.8655 20.4368 22.8204L20.6131 22.7312H20.632V19.9913C20.6326 18.1275 19.1164 16.611 17.2526 16.611ZM21.6201 13.8857H19.3974C19.3733 14.7751 18.9937 15.5759 18.3933 16.1519C20.0499 16.6445 21.2621 18.1808 21.2621 19.9954V20.8395C23.4568 20.7591 24.7215 20.1371 24.8048 20.0953L24.9811 20.0059H25V17.2656C25 15.402 23.4837 13.8857 21.6201 13.8857ZM11.5006 13.706C12.017 13.706 12.4975 13.5553 12.9045 13.2985C13.0339 12.4546 13.4863 11.7171 14.1326 11.2148C14.1353 11.1654 14.14 11.1164 14.14 11.0666C14.14 9.60846 12.958 8.42665 11.5006 8.42665C10.0422 8.42665 8.86065 9.60846 8.86065 11.0666C8.86065 12.524 10.0422 13.706 11.5006 13.706ZM13.8714 16.1519C13.2738 15.5788 12.8955 14.7823 12.8679 13.8983C12.7855 13.8922 12.7039 13.8857 12.6199 13.8857H10.3801C8.51629 13.8857 7 15.402 7 17.2656V20.0055L7.00696 20.0477L7.19566 20.1072C8.62254 20.5527 9.89599 20.758 11.0021 20.8227V19.9954C11.0025 18.1808 12.2142 16.6449 13.8714 16.1519Z" fill="#6576FF"/>
</svg>
