<svg width="16" height="20" viewBox="0 0 16 20" fill="none" xmlns="http://www.w3.org/2000/svg">
<path d="M0 20H15.8621V0H3.44828L0 3.44828V20Z" fill="#FFB730"/>
<path d="M3.44828 3.44828V0L0 3.44828H3.44828Z" fill="#FFD991"/>
<path d="M10.3322 15.0151L9.82741 11.7241H10.1722V9.65515H7.41362V11.7241H7.75844L7.25232 15.0151C7.20635 15.3132 7.29289 15.6164 7.48905 15.8454C7.68537 16.0745 7.97177 16.2065 8.27333 16.2069H9.31017C9.61189 16.2067 9.89863 16.0749 10.095 15.8459C10.2914 15.6167 10.3782 15.3133 10.3322 15.0151Z" fill="#F79D1E"/>
<path d="M9.4712 15.0151L8.96507 11.7241H9.3099V9.65515H6.55128V11.7241H6.89611L6.38998 15.0151C6.34401 15.3137 6.43089 15.6172 6.62755 15.8464C6.82438 16.0755 7.11129 16.2072 7.41335 16.2069H8.44783C8.74989 16.2072 9.0368 16.0755 9.23363 15.8464C9.43029 15.6172 9.51717 15.3137 9.4712 15.0151Z" fill="#DEDEDE"/>
<path d="M9.31038 1.72414V1.03448H8.2759V0H7.58624V1.03448H6.55176V1.72414H7.58624V2.41379H6.55176V3.10345H7.58624V3.7931H6.55176V4.48276H7.58624V5.17241H6.55176V5.86207H7.58624V6.55172H6.55176V7.24138H7.58624V7.93103H6.55176V8.62069H7.58624V10.6897H8.2759V8.62069H9.31038V7.93103H8.2759V7.24138H9.31038V6.55172H8.2759V5.86207H9.31038V5.17241H8.2759V4.48276H9.31038V3.7931H8.2759V3.10345H9.31038V2.41379H8.2759V1.72414H9.31038Z" fill="#FD882F"/>
<path d="M7.58594 14.4828H8.27559V15.1724H7.58594V14.4828Z" fill="#C7C7C7"/>
<path d="M0 3.44824H2.75862V4.1379H0V3.44824Z" fill="#F79D1E"/>
<path d="M9.07149 12.4138L8.96525 11.7241H6.89628L6.79004 12.4138H9.07149Z" fill="#C7C7C7"/>
<path d="M7.58594 9.65515H8.27559V10.6896H7.58594V9.65515Z" fill="#F79D1E"/>
</svg>
